HIERARCHY
ROOT Hips
{
  OFFSET 5.84602e-005 68.8428 3.50346
  CHANNELS 6 Xposition Yposition Zposition Zrotation Xrotation Yrotation
  JOINT Spine
  {
    OFFSET 0 8.597 -4.6522
    CHANNELS 3 Zrotation Xrotation Yrotation
    JOINT Spine1
    {
      OFFSET 0 7.8454 0.4098
      CHANNELS 3 Zrotation Xrotation Yrotation
      JOINT Spine2
      {
        OFFSET 0 9.7078 -2.1609
        CHANNELS 3 Zrotation Xrotation Yrotation
        JOINT Neck
        {
          OFFSET 0 21.8761 -0.4549
          CHANNELS 3 Zrotation Xrotation Yrotation
          JOINT Head
          {
            OFFSET 0 12.3537 3.3602
            CHANNELS 3 Zrotation Xrotation Yrotation
            End Site
            {
              OFFSET 0.0001 18.9506 0.5657
            }
          }
        }
        JOINT LeftShoulder
        {
          OFFSET 2.2086 21.1115 7.2329
          CHANNELS 3 Zrotation Xrotation Yrotation
          JOINT LeftArm
          {
            OFFSET 13.1193 3.0282 -4.8998
            CHANNELS 3 Zrotation Xrotation Yrotation
            JOINT LeftForeArm
            {
              OFFSET 27.4081 -0.0973053 -0.2375
              CHANNELS 3 Zrotation Xrotation Yrotation
              JOINT LeftHand
              {
                OFFSET 22.8641 0.0662994 -0.1369
                CHANNELS 3 Zrotation Xrotation Yrotation
                JOINT LeftHandIndex1
                {
                  OFFSET 8.8614 0.775009 2.4612
                  CHANNELS 3 Zrotation Xrotation Yrotation
                  JOINT LeftHandIndex2
                  {
                    OFFSET 3.3146 -0.808304 0.5841
                    CHANNELS 3 Zrotation Xrotation Yrotation
                    JOINT LeftHandIndex3
                    {
                      OFFSET 2.2628 -0.552002 0.3989
                      CHANNELS 3 Zrotation Xrotation Yrotation
                      End Site
                      {
                        OFFSET 1.6102 -0.4807 0.2612
                      }
                    }
                  }
                }
                JOINT LeftHandMiddle1
                {
                  OFFSET 8.9937 0.895004 0.2143
                  CHANNELS 3 Zrotation Xrotation Yrotation
                  JOINT LeftHandMiddle2
                  {
                    OFFSET 4.0984 0.0113983 -0.0242
                    CHANNELS 3 Zrotation Xrotation Yrotation
                    JOINT LeftHandMiddle3
                    {
                      OFFSET 2.2716 0.00689697 -0.0138001
                      CHANNELS 3 Zrotation Xrotation Yrotation
                      End Site
                      {
                        OFFSET 2.0404 -0.1441 0.0027
                      }
                    }
                  }
                }
                JOINT LeftHandRing1
                {
                  OFFSET 8.5234 0.597198 -2.0164
                  CHANNELS 3 Zrotation Xrotation Yrotation
                  JOINT LeftHandRing2
                  {
                    OFFSET 3.7188 -0.188293 -0.2328
                    CHANNELS 3 Zrotation Xrotation Yrotation
                    JOINT LeftHandRing3
                    {
                      OFFSET 2.1191 -0.106598 -0.1332
                      CHANNELS 3 Zrotation Xrotation Yrotation
                      End Site
                      {
                        OFFSET 1.8737 -0.2304 -0.0886
                      }
                    }
                  }
                }
                JOINT LeftHandPinky1
                {
                  OFFSET 7.9094 -0.601089 -3.4825
                  CHANNELS 3 Zrotation Xrotation Yrotation
                  JOINT LeftHandPinky2
                  {
                    OFFSET 2.2874 -0.477005 -0.6314
                    CHANNELS 3 Zrotation Xrotation Yrotation
                    JOINT LeftHandPinky3
                    {
                      OFFSET 1.6774 -0.349396 -0.4633
                      CHANNELS 3 Zrotation Xrotation Yrotation
                      End Site
                      {
                        OFFSET 1.4888 -0.4091 -0.3416
                      }
                    }
                  }
                }
                JOINT LeftHandThumb1
                {
                  OFFSET 1.833 -1.3875 1.3896
                  CHANNELS 3 Zrotation Xrotation Yrotation
                  JOINT LeftHandThumb2
                  {
                    OFFSET 3.4129 -1.121 2.5732
                    CHANNELS 3 Zrotation Xrotation Yrotation
                    JOINT LeftHandThumb3
                    {
                      OFFSET 2.2474 -0.804199 1.6192
                      CHANNELS 3 Zrotation Xrotation Yrotation
                      End Site
                      {
                        OFFSET 1.6527 -0.5689 1.1317
                      }
                    }
                  }
                }
              }
            }
          }
        }
        JOINT RightShoulder
        {
          OFFSET -2.2086 21.1115 7.2329
          CHANNELS 3 Zrotation Xrotation Yrotation
          JOINT RightArm
          {
            OFFSET -13.1216 3.0287 -4.9007
            CHANNELS 3 Zrotation Xrotation Yrotation
            JOINT RightForeArm
            {
              OFFSET -27.4081 -0.0973053 -0.2375
              CHANNELS 3 Zrotation Xrotation Yrotation
              JOINT RightHand
              {
                OFFSET -22.8641 0.0664063 -0.1369
                CHANNELS 3 Zrotation Xrotation Yrotation
                JOINT RightHandIndex1
                {
                  OFFSET -8.8614 0.774994 2.4612
                  CHANNELS 3 Zrotation Xrotation Yrotation
                  JOINT RightHandIndex2
                  {
                    OFFSET -3.3146 -0.808304 0.5841
                    CHANNELS 3 Zrotation Xrotation Yrotation
                    JOINT RightHandIndex3
                    {
                      OFFSET -2.2628 -0.552002 0.3989
                      CHANNELS 3 Zrotation Xrotation Yrotation
                      End Site
                      {
                        OFFSET -1.6102 -0.4807 0.2612
                      }
                    }
                  }
                }
                JOINT RightHandMiddle1
                {
                  OFFSET -8.9937 0.894989 0.2143
                  CHANNELS 3 Zrotation Xrotation Yrotation
                  JOINT RightHandMiddle2
                  {
                    OFFSET -4.0984 0.0113983 -0.0242
                    CHANNELS 3 Zrotation Xrotation Yrotation
                    JOINT RightHandMiddle3
                    {
                      OFFSET -2.2716 0.00691223 -0.0138001
                      CHANNELS 3 Zrotation Xrotation Yrotation
                      End Site
                      {
                        OFFSET -2.0404 -0.1441 0.0027
                      }
                    }
                  }
                }
                JOINT RightHandRing1
                {
                  OFFSET -8.5234 0.597198 -2.0164
                  CHANNELS 3 Zrotation Xrotation Yrotation
                  JOINT RightHandRing2
                  {
                    OFFSET -3.7188 -0.188309 -0.2328
                    CHANNELS 3 Zrotation Xrotation Yrotation
                    JOINT RightHandRing3
                    {
                      OFFSET -2.1191 -0.106598 -0.1332
                      CHANNELS 3 Zrotation Xrotation Yrotation
                      End Site
                      {
                        OFFSET -1.8737 -0.2304 -0.0886
                      }
                    }
                  }
                }
                JOINT RightHandPinky1
                {
                  OFFSET -7.9094 -0.601105 -3.4825
                  CHANNELS 3 Zrotation Xrotation Yrotation
                  JOINT RightHandPinky2
                  {
                    OFFSET -2.2874 -0.477005 -0.6314
                    CHANNELS 3 Zrotation Xrotation Yrotation
                    JOINT RightHandPinky3
                    {
                      OFFSET -1.6774 -0.349396 -0.4633
                      CHANNELS 3 Zrotation Xrotation Yrotation
                      End Site
                      {
                        OFFSET -1.4888 -0.4091 -0.3416
                      }
                    }
                  }
                }
                JOINT RightHandThumb1
                {
                  OFFSET -1.833 -1.38751 1.3896
                  CHANNELS 3 Zrotation Xrotation Yrotation
                  JOINT RightHandThumb2
                  {
                    OFFSET -3.41299 -1.12099 2.5732
                    CHANNELS 3 Zrotation Xrotation Yrotation
                    JOINT RightHandThumb3
                    {
                      OFFSET -2.24741 -0.804108 1.6192
                      CHANNELS 3 Zrotation Xrotation Yrotation
                      End Site
                      {
                        OFFSET -1.6527 -0.5689 1.1317
                      }
                    }
                  }
                }
              }
            }
          }
        }
      }
    }
  }
  JOINT RightUpLeg
  {
    OFFSET -9.1966 3.8861 -0.7581
    CHANNELS 3 Zrotation Xrotation Yrotation
    JOINT RightLeg
    {
      OFFSET -0.7359 -41.0265 0
      CHANNELS 3 Zrotation Xrotation Yrotation
      JOINT RightFoot
      {
        OFFSET 0 -40.2855 0
        CHANNELS 3 Zrotation Xrotation Yrotation
        JOINT RightToeBase
        {
          OFFSET 0 -5.6122 11.7359
          CHANNELS 3 Zrotation Xrotation Yrotation
          End Site
          {
            OFFSET 0 0 7.8731
          }
        }
      }
    }
  }
  JOINT LeftUpLeg
  {
    OFFSET 9.1965 3.8864 -0.7581
    CHANNELS 3 Zrotation Xrotation Yrotation
    JOINT LeftLeg
    {
      OFFSET 0.7359 -41.0268 0
      CHANNELS 3 Zrotation Xrotation Yrotation
      JOINT LeftFoot
      {
        OFFSET 0 -40.2855 0
        CHANNELS 3 Zrotation Xrotation Yrotation
        JOINT LeftToeBase
        {
          OFFSET 0 -5.6122 11.7359
          CHANNELS 3 Zrotation Xrotation Yrotation
          End Site
          {
            OFFSET 0 0 7.8731
          }
        }
      }
    }
  }
}
MOTION
Frames:	5
Frame Time:	0.0333333
5.84602e-005 68.8428 3.50346 0 0 -0 0 0 -0 0 0 -0 0 0 -0 0 0 -0 0 0 -0 0 0 -0 0 0 -0 0 0 -0 0 0 -0 0 0 -0 0 0 -0 0 0 -0 0 0 -0 -0.0146107 -8.87603e-005 -2.63497e-007 2.99804e-018 -2.42657e-020 -1.42182e-022 0 0 -0 -0.0187562 -0.001176 5.858e-005 5.06224e-018 3.88251e-019 1.21329e-020 0 0 -0 -0.012269 -0.00324817 0.000675346 -1.74678e-018 3.88251e-019 -0 0 0 -0 0 0 -0 0 0 -0 0 0 -0 0 0 -0 0 0 -0 0 0 -0 0 0 -0 0 0 -0 0 0 -0 0 0 -0 0.0149955 -9.10982e-005 2.64101e-007 -9.69331e-018 1.21329e-020 -4.7394e-023 0 0 -0 0.0189956 -0.00119102 -5.96516e-005 -5.41541e-019 0 2.42657e-020 0 0 -0 0.0122698 -0.00324857 -0.000673756 -2.00796e-019 0 -1.94126e-019 0 0 -0 0 0 -0 0 0 -0 3.39842 1.33031 -0.0637918 -5.65207e-008 0.834868 -0.000436188 -3.39935 -2.16518 -0.0642563 -8.89002e-024 -1.18485e-023 -1.48106e-024 -3.39844 1.35642 0.0640283 -3.18788e-007 0.782166 -0.000588827 3.39931 -2.13858 0.0634662 1.1399e-023 0 -0 
-6.93049 18.0083 39.6731 180 75.004 -180 -0.100355 -5.75323 -0.431086 -0.246347 -11.5055 -0.879061 -0.246347 -11.5055 -0.879061 -1.50979e-006 -31.0028 -1.23129e-006 -6.43781e-007 -15.0017 -1.70617e-007 -5.9104 -8.01677 -25.2493 6.93344 -1.13612 -20.1026 35.5922 -20.6854 -38.5886 9.56817 -7.74256 1.34716 -2.20695e-032 -3.18055e-015 -3.97569e-016 -3.18055e-015 -3.18055e-015 -0 -2.34489e-032 -3.37934e-015 -3.97569e-016 -2.20695e-032 -3.18055e-015 -3.97569e-016 -0.0145516 -8.83929e-005 -2.57375e-007 3.18055e-015 -2.98177e-016 -7.95139e-016 -2.20695e-032 -3.18055e-015 -3.97569e-016 -0.0187554 -0.00117614 6.15982e-005 -6.36111e-015 1.09332e-015 7.95139e-016 -2.20695e-032 -3.18055e-015 -3.97569e-016 -0.0121748 -0.00322393 0.000668582 -3.18055e-015 -2.98177e-016 3.97569e-016 -2.20695e-032 -3.18055e-015 -3.97569e-016 -3.18055e-015 -3.18055e-015 -0 -2.34489e-032 -3.37934e-015 -3.97569e-016 6.50325 -8.0745 24.6984 -7.56657 -1.28529 21.2662 -30.9635 -17.4592 41.5747 -9.90223 -7.32716 -2.84988 3.18055e-015 1.21259e-014 -3.18055e-015 8.06917e-031 1.16289e-014 -3.97569e-015 -3.18055e-015 1.22253e-014 -3.97569e-015 3.18055e-015 1.21259e-014 -3.18055e-015 0.0149561 -9.21124e-005 -4.96208e-006 -6.89673e-034 -9.93923e-017 -3.97569e-016 3.18055e-015 1.21259e-014 -3.18055e-015 0.0190795 -0.00119847 -6.13838e-005 6.36111e-015 -1.19271e-015 7.95139e-016 3.18055e-015 1.21259e-014 -3.18055e-015 0.0120962 -0.0032014 -0.00066531 -6.36111e-015 1.16289e-014 -4.37326e-015 3.18055e-015 1.21259e-014 -3.18055e-015 8.06917e-031 1.16289e-014 -3.97569e-015 -3.18055e-015 1.22253e-014 -3.97569e-015 -107.442 -42.4457 -111.864 -58.2933 80.5801 66.4459 -29.4723 34.8028 57.5245 5.60065e-008 -1.9617e-006 4.54286e-007 107.468 -42.4542 111.853 58.157 80.6147 -66.3193 29.4647 34.8322 -57.5447 1.98609e-008 3.66185e-009 4.939e-008 
-6.93042 17.6461 39.7049 180 76.1104 -180 -0.103503 -5.32511 -0.430043 -0.248973 -10.6493 -0.875507 -0.248972 -10.6493 -0.875507 9.56835e-006 -31.6137 2.03868e-006 -1.34838e-007 -15.4459 9.61264e-008 -5.30832 -8.7052 -25.4057 6.93344 -1.13613 -20.1026 35.344 -20.5025 -38.2379 10.1948 -8.11019 1.40342 3.18055e-015 -1.59028e-014 3.97569e-016 6.36111e-015 -1.56046e-014 3.97569e-016 3.18055e-015 -1.47101e-014 3.97569e-016 3.18055e-015 -1.59028e-014 3.97569e-016 -0.0146168 -8.8158e-005 1.82578e-006 3.18055e-015 -1.2921e-015 -3.97569e-016 3.18055e-015 -1.59028e-014 3.97569e-016 -0.0187037 -0.00117179 5.12688e-005 -3.18055e-015 5.96354e-016 3.97569e-016 3.18055e-015 -1.59028e-014 3.97569e-016 -0.0121273 -0.00320988 0.000663304 -4.94743e-007 -4.0863e-007 1.76115e-007 3.18055e-015 -1.59028e-014 3.97569e-016 6.36111e-015 -1.56046e-014 3.97569e-016 3.18055e-015 -1.47101e-014 3.97569e-016 5.86913 -8.80312 24.9265 -7.49731 -1.27349 21.018 -30.7462 -17.2781 41.1959 -10.4967 -7.69622 -2.93406 9.40714e-031 1.23246e-014 -4.37326e-015 9.25541e-031 1.21259e-014 -4.37326e-015 3.18055e-015 1.14301e-014 -3.57812e-015 9.40714e-031 1.23246e-014 -4.37326e-015 0.015063 -9.18336e-005 5.33059e-006 9.54166e-015 1.49089e-015 7.95139e-016 9.40714e-031 1.23246e-014 -4.37326e-015 0.0189244 -0.00118583 -5.9509e-005 -3.18055e-015 -2.98177e-016 3.97569e-016 9.40714e-031 1.23246e-014 -4.37326e-015 0.0123027 -0.00325625 -0.000680243 3.18055e-015 -2.98177e-016 7.95139e-016 9.40714e-031 1.23246e-014 -4.37326e-015 9.25541e-031 1.21259e-014 -4.37326e-015 3.18055e-015 1.14301e-014 -3.57812e-015 -106.217 -41.539 -111.057 -58.1574 80.5665 66.3011 -31.0184 34.1059 58.731 1.30434e-006 5.69942e-006 -3.41871e-008 106.244 -41.5838 111.02 58.0209 80.601 -66.1748 30.9591 34.1467 -58.7123 -6.59e-007 6.34505e-006 2.41139e-007 
-6.93035 17.284 39.7399 180 77.2185 -180 -0.106653 -4.89138 -0.428826 -0.251586 -9.78179 -0.871622 -0.251586 -9.78182 -0.871622 1.31098e-005 -32.2243 6.03838e-006 8.99514e-008 -15.8902 -8.62418e-008 -4.70634 -9.39594 -25.5553 6.93344 -1.13611 -20.1026 35.0948 -20.3209 -37.8865 10.8227 -8.4774 1.4638 -3.18055e-015 -6.95746e-016 -0 -3.18055e-015 -6.95746e-016 -0 -3.18055e-015 -5.96354e-016 3.97569e-016 -3.18055e-015 -6.95746e-016 -0 -0.0146138 -8.8805e-005 -1.55002e-006 3.44836e-033 4.96962e-016 -3.97569e-016 -3.18055e-015 -6.95746e-016 -0 -0.0186849 -0.00117186 6.212e-005 6.36111e-015 2.28602e-015 -7.95139e-016 -3.18055e-015 -6.95746e-016 -0 -0.0122096 -0.0032321 0.000671635 3.18055e-015 1.88845e-015 3.97569e-016 -3.18055e-015 -6.95746e-016 -0 -3.18055e-015 -6.95746e-016 -0 -3.18055e-015 -5.96354e-016 3.97569e-016 5.23586 -9.53509 25.1471 -7.428 -1.26196 20.7697 -30.5278 -17.0984 40.8166 -11.0926 -8.06462 -3.02226 -3.18055e-015 -5.96354e-016 -3.97569e-016 -3.18055e-015 -3.97569e-016 -3.97569e-016 3.18055e-015 -7.95139e-016 -0 -3.18055e-015 -5.96354e-016 -3.97569e-016 0.0149686 -8.92382e-005 -3.09671e-006 2.75869e-033 -1.98785e-016 7.95139e-016 -3.18055e-015 -5.96354e-016 -3.97569e-016 0.0189462 -0.0011873 -5.86767e-005 -2.75869e-033 3.97569e-016 3.97569e-016 -3.18055e-015 -5.96354e-016 -3.97569e-016 0.0122353 -0.00323708 -0.000668422 -3.18055e-015 2.18663e-015 -7.95139e-016 -3.18055e-015 -5.96354e-016 -3.97569e-016 -3.18055e-015 -3.97569e-016 -3.97569e-016 3.18055e-015 -7.95139e-016 -0 -105.023 -40.6178 -110.286 -58.0228 80.5529 66.1587 -32.5366 33.381 59.9068 1.74633e-008 -3.24802e-009 4.31799e-008 105.051 -40.6986 110.221 57.8855 80.5874 -66.0323 32.4268 33.435 -59.8506 2.351e-007 3.20278e-006 3.54224e-007 
-6.93028 16.9222 39.778 180 78.328 -180 -0.1098 -4.45261 -0.427433 -0.254189 -8.90426 -0.867402 -0.254189 -8.90424 -0.867402 -4.37733e-006 -32.8346 -2.24644e-006 3.94003e-007 -16.3346 1.39879e-007 -4.10437 -10.0889 -25.698 6.93345 -1.13615 -20.1026 34.8446 -20.1407 -37.5346 11.4521 -8.84415 1.52836 -3.18055e-015 1.49089e-015 7.95139e-016 -8.27607e-033 1.19271e-015 3.97569e-016 -1.03451e-032 1.49089e-015 3.97569e-016 -3.18055e-015 1.49089e-015 7.95139e-016 -0.0146391 -8.98555e-005 -8.13574e-006 4.93484e-007 3.90811e-007 -1.99723e-007 -3.18055e-015 1.49089e-015 7.95139e-016 -0.0187307 -0.00117486 5.53509e-005 -3.18055e-015 -2.38542e-015 -0 -3.18055e-015 1.49089e-015 7.95139e-016 -0.0123918 -0.00327941 0.000684343 4.93674e-007 3.90531e-007 -1.99685e-007 -3.18055e-015 1.49089e-015 7.95139e-016 -8.27607e-033 1.19271e-015 3.97569e-016 -1.03451e-032 1.49089e-015 3.97569e-016 4.60335 -10.2703 25.3602 -7.35863 -1.25074 20.5215 -30.3083 -16.92 40.4368 -11.6899 -8.43229 -3.11446 6.36111e-015 2.98177e-016 -3.97569e-016 6.36111e-015 0 -3.97569e-016 6.36111e-015 3.97569e-016 -3.97569e-016 6.36111e-015 2.98177e-016 -3.97569e-016 0.0150359 -9.05474e-005 3.03541e-007 3.18055e-015 -9.93923e-017 -0 6.36111e-015 2.98177e-016 -3.97569e-016 0.0189796 -0.00118869 -4.88446e-005 3.18055e-015 -6.95746e-016 -3.97569e-016 6.36111e-015 2.98177e-016 -3.97569e-016 0.0122084 -0.00323289 -0.000678181 6.36111e-015 -1.98785e-016 -3.97569e-016 6.36111e-015 2.98177e-016 -3.97569e-016 6.36111e-015 0 -3.97569e-016 6.36111e-015 3.97569e-016 -3.97569e-016 -103.862 -39.6831 -109.549 -57.8879 80.5392 66.0172 -34.0263 32.6294 61.0517 9.07661e-007 3.13531e-006 2.27388e-007 103.889 -39.7996 109.456 57.7508 80.5737 -65.8913 33.8673 32.6983 -60.9592 -7.50344e-008 -1.40361e-008 -1.8497e-007 
